<?xml version="1.0" standalone="no"?>
<!DOCTYPE svg PUBLIC "-//W3C//DTD SVG 20010904//EN"
 "http://www.w3.org/TR/2001/REC-SVG-20010904/DTD/svg10.dtd">
<svg version="1.0" xmlns="http://www.w3.org/2000/svg"
 width="822.000000pt" height="545.000000pt" viewBox="0 0 822.000000 545.000000"
 preserveAspectRatio="xMidYMid meet">

<g transform="translate(0.000000,545.000000) scale(0.100000,-0.100000)"
fill="#000000" stroke="none">
<path d="M3868 5439 c-901 -51 -1784 -437 -2474 -1080 -599 -558 -1038 -1297
-1244 -2093 -89 -342 -127 -614 -146 -1018 l-6 -148 74 0 75 0 6 198 c28 939
383 1866 995 2602 122 146 375 400 515 515 630 520 1332 816 2117 891 202 20
591 14 780 -11 890 -117 1667 -512 2310 -1171 640 -657 1051 -1514 1170 -2438
15 -116 40 -452 40 -543 0 -9 20 -13 65 -13 l65 0 0 68 c0 115 -19 360 -40
522 -64 485 -206 950 -423 1385 -108 216 -151 291 -283 490 -668 1007 -1711
1670 -2859 1819 -247 32 -477 40 -737 25z"/>
<path d="M3731 5145 c-283 -32 -516 -83 -776 -170 -1394 -464 -2438 -1755
-2644 -3270 -24 -173 -41 -391 -41 -517 l0 -88 308 0 c169 0 384 3 478 7 l171
6 7 131 c36 672 272 1300 681 1811 105 132 324 350 455 455 652 520 1462 725
2258 571 1170 -227 2114 -1236 2311 -2471 22 -135 41 -331 41 -422 l0 -58 482
0 481 0 -6 173 c-32 888 -363 1762 -930 2456 -342 418 -791 777 -1273 1019
-362 181 -738 297 -1169 358 -157 22 -669 28 -834 9z m740 -212 c6 -19 9 -50
6 -69 -7 -41 -76 -129 -89 -116 -6 6 -6 18 1 30 16 31 13 73 -8 109 l-20 31
31 41 c29 40 31 41 49 25 10 -9 23 -32 30 -51z m-259 -19 c76 -49 105 -173 60
-260 -28 -54 -123 -141 -170 -154 -53 -14 -70 -13 -119 11 -58 28 -93 87 -93
158 0 60 17 98 60 135 39 32 55 34 45 4 -26 -84 -8 -155 56 -212 48 -44 85
-47 120 -10 21 22 24 35 24 98 0 63 -4 78 -28 115 -40 60 -81 83 -139 78 -53
-5 -60 4 -23 29 74 48 142 51 207 8z m-483 -9 c14 -14 12 -18 -16 -47 l-32
-32 -36 17 c-93 45 -157 -6 -142 -114 13 -101 88 -173 182 -173 30 -1 55 -4
55 -8 0 -12 -81 -68 -106 -74 -42 -11 -107 16 -155 65 -47 47 -69 96 -69 157
0 44 49 133 92 167 75 60 188 81 227 42z m-465 -67 c-4 -7 -22 -32 -41 -55
-33 -42 -36 -43 -94 -43 l-59 0 0 -60 0 -59 80 -3 81 -3 -26 -35 c-31 -42 -60
-59 -102 -60 l-33 0 0 -76 0 -77 110 5 c61 3 110 3 110 -1 0 -3 -16 -27 -35
-53 -39 -54 -43 -55 -198 -42 l-77 7 0 118 0 119 -36 0 -36 0 36 42 c34 39 36
45 36 115 l0 73 -36 0 -37 0 39 44 39 44 135 4 c74 2 139 5 143 6 5 1 5 -4 1
-10z m1570 -19 c40 -19 39 -37 -5 -66 l-40 -26 -20 21 c-42 46 -119 31 -119
-23 0 -32 29 -50 116 -75 92 -26 118 -47 122 -95 3 -34 -2 -42 -55 -94 -83
-81 -180 -104 -251 -61 -41 25 -39 43 10 83 l37 30 28 -30 c36 -38 67 -48 103
-33 51 21 51 79 2 104 -15 7 -56 21 -92 30 -72 19 -91 31 -108 63 -29 53 49
143 148 174 38 11 96 10 124 -2z m399 -340 c27 -33 23 -93 -9 -118 -57 -45
-134 -8 -134 63 0 73 96 111 143 55z m484 12 c72 -33 101 -113 58 -162 -20
-22 -109 -69 -132 -69 -22 0 -14 16 12 28 75 34 40 142 -45 142 -19 0 -20 -8
-20 -159 l0 -159 -37 -23 c-21 -13 -42 -25 -47 -28 -5 -2 -7 41 -5 95 2 55 2
139 1 188 l-2 88 -35 -4 c-19 -2 -35 -1 -35 3 0 4 18 23 40 43 39 35 42 36
123 36 59 0 94 -6 124 -19z m-2917 1 c0 -11 -50 -57 -77 -71 -12 -6 -41 -11
-64 -11 l-42 0 7 -148 7 -149 -43 -29 c-23 -16 -47 -32 -53 -36 -7 -4 -9 54
-7 177 l3 184 -80 7 c-45 3 -81 9 -81 13 1 3 20 21 43 38 l42 33 173 0 c94 0
172 -4 172 -8z m3262 -308 c3 -27 7 -115 7 -196 l1 -147 -45 -31 -45 -31 0
139 c0 179 -7 233 -32 240 -10 2 -18 7 -18 11 0 10 104 71 115 68 5 -2 13 -26
17 -53z m-3807 12 c45 -19 45 -46 1 -70 -34 -18 -35 -18 -62 3 -47 37 -114 20
-114 -29 0 -31 27 -48 114 -75 130 -40 155 -85 94 -166 -67 -86 -197 -130
-268 -91 -48 26 -50 54 -7 86 19 14 37 26 41 26 4 0 21 -13 38 -30 38 -38 98
-42 122 -8 35 50 6 82 -104 113 -87 25 -130 56 -130 94 0 24 38 79 71 104 29
21 123 56 152 57 10 0 33 -7 52 -14z m4174 -296 c65 0 111 -4 111 -10 0 -5
-28 -45 -62 -87 -80 -99 -136 -182 -140 -208 -6 -35 44 -49 131 -38 42 6 78 9
80 7 2 -2 -14 -26 -35 -54 l-39 -50 -112 2 c-99 3 -115 6 -133 24 -32 32 -19
60 86 186 52 62 94 115 94 118 0 3 -30 4 -67 2 -75 -4 -123 9 -123 34 0 8 17
36 37 61 32 39 38 43 49 29 9 -13 32 -16 123 -16z m-4709 -120 c42 -119 115
-265 145 -288 14 -11 25 -22 25 -26 0 -9 -73 -56 -87 -56 -7 0 -29 25 -48 55
l-36 55 -88 0 -89 0 -6 -33 c-5 -27 -15 -37 -51 -55 -64 -31 -70 -28 -42 21
30 52 102 219 132 307 18 55 28 68 61 87 21 13 43 22 47 20 4 -1 21 -40 37
-87z m5064 -386 c5 -14 22 -16 116 -13 60 2 111 0 111 -5 1 -5 -18 -34 -43
-65 -89 -110 -158 -213 -158 -237 0 -31 30 -38 131 -31 88 6 87 8 31 -62 l-35
-43 -101 5 c-112 5 -132 10 -147 38 -15 29 9 69 110 189 l89 105 -77 3 c-136
4 -148 17 -85 90 39 46 49 50 58 26z m-5349 -289 l0 -175 -47 -41 -48 -41 0
55 c0 30 -3 75 -6 100 l-7 46 -39 -62 c-45 -70 -106 -137 -125 -137 -21 0 -32
33 -43 131 -20 184 -19 179 -47 190 -20 7 -23 12 -13 24 22 27 111 78 120 69
5 -5 15 -63 22 -129 13 -118 13 -120 38 -120 19 0 32 12 57 55 18 30 33 68 33
84 0 23 12 41 50 78 27 26 51 48 53 48 1 0 2 -79 2 -175z m5835 -172 c0 -23
89 -233 123 -290 17 -29 40 -56 49 -59 10 -3 18 -9 18 -15 0 -15 -79 -62 -95
-55 -9 3 -30 28 -47 56 l-31 50 -88 0 -88 0 -6 -34 c-6 -29 -14 -37 -58 -55
-27 -12 -52 -20 -54 -18 -1 2 10 28 26 58 33 61 113 252 131 315 10 33 20 45
54 61 42 21 66 16 66 -14z m-6355 -423 l115 0 0 93 0 93 45 32 c63 44 69 42
61 -23 -3 -30 -3 -86 0 -125 l7 -70 35 0 36 0 -38 -38 c-35 -37 -37 -42 -34
-98 3 -54 5 -59 26 -58 12 0 22 -5 22 -11 0 -13 -111 -95 -128 -95 -20 0 -27
25 -32 120 l-5 95 -80 3 c-44 2 -95 0 -112 -3 -31 -6 -33 -8 -33 -51 0 -48 15
-88 30 -79 5 3 11 1 14 -4 8 -13 -109 -82 -128 -75 -14 5 -16 35 -15 243 l0
236 47 30 47 30 3 -122 3 -123 114 0z"/>
<path d="M1618 3713 c-3 -10 -15 -42 -27 -70 l-21 -53 59 0 60 0 -26 63 c-29
73 -38 85 -45 60z"/>
<path d="M7172 2778 c-11 -29 -23 -61 -27 -70 -6 -16 0 -18 49 -18 31 0 56 4
56 9 0 11 -42 114 -51 124 -4 5 -16 -15 -27 -45z"/>
<path d="M3905 3715 c-322 -56 -582 -146 -828 -287 -101 -59 -126 -69 -152
-64 -28 6 -38 1 -84 -42 -34 -32 -51 -56 -51 -73 0 -18 -23 -44 -85 -99 -47
-41 -85 -79 -85 -83 0 -5 -19 -30 -42 -57 -29 -33 -52 -50 -75 -55 -70 -13
-128 -102 -88 -135 13 -11 13 -15 -1 -40 -15 -24 -21 -26 -63 -22 -40 3 -53
-1 -96 -30 -39 -26 -51 -41 -58 -71 -13 -53 3 -70 65 -65 51 3 58 -4 33 -39
-11 -15 -30 -22 -72 -27 -96 -12 -117 -22 -162 -83 -51 -69 -53 -106 -6 -111
46 -6 102 16 147 56 30 26 39 31 34 17 -23 -59 -79 -285 -96 -382 -34 -197
-43 -335 -37 -573 8 -276 8 -280 53 -280 l34 0 0 201 0 201 148 -6 c81 -4 175
-9 210 -12 l62 -6 0 -189 0 -188 658 -4 c361 -3 691 -9 732 -15 49 -6 103 -7
155 0 195 23 254 22 350 -6 97 -28 132 -27 197 5 34 18 67 19 428 19 l390 0 0
189 0 189 73 6 c39 3 134 8 210 12 l137 6 0 -201 0 -201 29 0 c28 0 30 2 37
58 12 91 9 536 -5 662 -15 143 -62 382 -95 485 l-25 78 57 -55 c115 -114 238
-102 169 15 -46 77 -85 100 -197 113 -54 6 -60 9 -69 37 -6 17 -10 32 -8 33 2
2 20 -1 42 -7 58 -16 85 0 85 51 0 46 -18 68 -81 101 -32 16 -53 20 -84 16
-37 -6 -43 -3 -57 21 -16 26 -16 29 3 40 22 14 26 60 7 84 -20 24 -72 56 -103
64 -30 7 -57 34 -86 85 -9 15 -52 62 -97 104 -68 64 -82 82 -82 108 0 24 -11
41 -47 74 -43 41 -50 44 -85 38 -34 -6 -46 -1 -111 40 -276 178 -650 294
-1027 318 -52 4 -114 -2 -205 -18z m135 -112 c0 -57 -20 -404 -26 -439 l-4
-31 -98 -6 c-53 -4 -123 -14 -156 -23 -32 -8 -62 -12 -66 -7 -8 9 -142 430
-144 452 -3 35 239 84 447 90 l47 1 0 -37z m254 12 c91 -7 298 -43 308 -53 8
-8 -135 -449 -149 -463 -5 -4 -33 -1 -63 7 -30 9 -101 18 -157 21 -57 3 -103
6 -103 7 -2 8 -30 449 -30 469 l0 28 58 -5 c31 -3 92 -8 136 -11z m-760 -363
c21 -112 37 -204 35 -205 -2 -2 -31 -11 -64 -21 -33 -10 -95 -35 -137 -56
l-78 -39 -98 127 c-54 70 -111 144 -126 164 l-28 37 64 41 c34 23 97 58 138
78 87 41 242 94 251 84 3 -4 23 -98 43 -210z m1362 134 c86 -41 206 -115 218
-135 5 -7 -111 -150 -259 -319 -2 -2 -24 11 -51 28 -54 34 -193 90 -224 90
-11 0 -20 2 -20 4 0 5 78 330 91 378 l9 37 73 -20 c39 -11 113 -40 163 -63z
m477 -315 c74 -70 167 -186 167 -208 0 -9 -316 -226 -335 -230 -5 -1 -28 19
-49 45 -36 44 -105 108 -169 159 l-28 22 106 185 106 186 61 -42 c34 -22 97
-75 141 -117z m-2278 -31 c53 -100 96 -182 94 -184 -2 -1 -28 -17 -57 -35 -51
-33 -182 -164 -182 -183 0 -6 -6 -8 -14 -5 -11 4 -307 210 -335 233 -7 6 71
96 143 167 77 76 220 187 240 187 7 0 57 -81 111 -180z m1210 -185 c316 -92
547 -347 609 -674 81 -426 -170 -847 -584 -982 -124 -41 -292 -51 -421 -24
-205 41 -387 155 -511 319 -124 164 -178 327 -178 533 0 416 292 768 705 849
104 20 268 11 380 -21z m-1571 -191 l137 -142 -47 -66 c-46 -67 -103 -186
-104 -218 0 -9 -4 -19 -9 -23 -7 -4 -377 109 -389 119 -1 2 7 29 18 62 30 87
120 267 180 358 42 65 54 76 64 65 7 -8 74 -78 150 -155z m2906 89 c28 -38 72
-113 99 -168 48 -96 100 -249 90 -260 -5 -4 -380 -105 -392 -105 -3 0 -11 17
-18 38 -15 47 -94 207 -122 246 l-21 30 148 143 c81 79 152 143 157 143 5 0
32 -30 59 -67z m-3161 -574 c97 -50 177 -92 179 -94 2 -1 -6 -47 -17 -101 -11
-55 -23 -145 -27 -201 -6 -89 -9 -103 -24 -103 -21 0 -298 -28 -359 -36 l-44
-6 7 102 c8 119 38 311 67 425 24 98 27 105 35 105 4 0 86 -41 183 -91z m3399
40 c37 -128 79 -490 65 -562 -5 -24 -9 -27 -37 -22 -51 8 -338 45 -353 45 -10
0 -13 21 -13 85 0 96 -22 218 -51 284 -11 24 -18 45 -17 47 10 9 375 172 383
170 5 -1 15 -22 23 -47z"/>
<path d="M3968 2710 c-227 -41 -411 -183 -507 -392 -63 -137 -81 -252 -61
-390 49 -336 314 -580 645 -595 127 -6 219 13 333 68 69 33 102 58 172 128 73
72 95 101 134 181 52 107 76 201 76 308 1 316 -211 597 -512 678 -67 18 -218
26 -280 14z m271 -26 c218 -49 424 -253 487 -484 24 -88 24 -262 1 -350 -98
-371 -482 -590 -842 -480 -110 34 -191 84 -280 174 -153 154 -220 349 -194
561 20 161 81 286 194 400 174 173 388 234 634 179z"/>
<path d="M4029 2581 c-27 -28 -31 -37 -26 -69 11 -69 76 -94 122 -47 47 46 25
126 -37 141 -22 5 -34 0 -59 -25z"/>
<path d="M4273 2525 c0 -22 2 -30 4 -17 2 12 2 30 0 40 -3 9 -5 -1 -4 -23z"/>
<path d="M3883 2450 c0 -25 2 -35 4 -22 2 12 2 32 0 45 -2 12 -4 2 -4 -23z"/>
<path d="M3651 2453 c-12 -10 -24 -35 -28 -55 -5 -32 -1 -41 26 -69 25 -25 37
-30 59 -25 62 15 84 95 37 141 -28 29 -64 32 -94 8z"/>
<path d="M4339 2361 c-27 -28 -31 -37 -26 -69 11 -69 76 -94 122 -47 47 46 25
126 -37 141 -22 5 -34 0 -59 -25z"/>
<path d="M4563 2315 c0 -22 2 -30 4 -17 2 12 2 30 0 40 -3 9 -5 -1 -4 -23z"/>
<path d="M3941 2274 c-62 -79 39 -184 107 -111 46 49 12 137 -53 137 -24 0
-39 -7 -54 -26z"/>
<path d="M4203 2240 c0 -25 2 -35 4 -22 2 12 2 32 0 45 -2 12 -4 2 -4 -23z"/>
<path d="M3703 2165 c0 -22 2 -30 4 -17 2 12 2 30 0 40 -3 9 -5 -1 -4 -23z"/>
<path d="M3463 2085 c0 -22 2 -30 4 -17 2 12 2 30 0 40 -3 9 -5 -1 -4 -23z"/>
<path d="M4471 2094 c-43 -55 -11 -134 54 -134 64 0 100 90 55 138 -30 32 -82
30 -109 -4z"/>
<path d="M3531 2084 c-43 -55 -11 -134 54 -134 66 0 101 92 52 138 -33 31 -80
29 -106 -4z"/>
<path d="M4233 1990 c0 -25 2 -35 4 -22 2 12 2 32 0 45 -2 12 -4 2 -4 -23z"/>
<path d="M4013 1985 c-45 -32 -37 -121 13 -144 37 -16 52 -14 79 14 68 67 -14
184 -92 130z"/>
<path d="M3773 1915 c0 -22 2 -30 4 -17 2 12 2 30 0 40 -3 9 -5 -1 -4 -23z"/>
<path d="M4603 1855 c0 -22 2 -30 4 -17 2 12 2 30 0 40 -3 9 -5 -1 -4 -23z"/>
<path d="M3543 1760 c0 -25 2 -35 4 -22 2 12 2 32 0 45 -2 12 -4 2 -4 -23z"/>
<path d="M4383 1785 c-47 -33 -37 -123 16 -145 78 -32 138 74 76 135 -28 28
-61 32 -92 10z"/>
<path d="M3699 1701 c-27 -28 -31 -37 -26 -69 11 -69 76 -94 122 -47 47 46 25
126 -37 141 -22 5 -34 0 -59 -25z"/>
<path d="M3933 1645 c0 -22 2 -30 4 -17 2 12 2 30 0 40 -3 9 -5 -1 -4 -23z"/>
<path d="M4071 1614 c-62 -79 39 -184 107 -111 46 49 12 137 -53 137 -24 0
-39 -7 -54 -26z"/>
<path d="M4283 1525 c0 -22 2 -30 4 -17 2 12 2 30 0 40 -3 9 -5 -1 -4 -23z"/>
<path d="M5439 3361 c13 -18 29 -55 36 -83 8 -27 22 -60 32 -72 46 -55 98
-106 110 -106 30 0 2 145 -40 210 -26 38 -71 65 -128 77 l-33 6 23 -32z"/>
<path d="M2682 3366 c-58 -20 -99 -69 -122 -142 -34 -111 -23 -158 27 -113 54
50 102 121 117 173 9 29 23 59 31 66 35 29 7 38 -53 16z"/>
<path d="M2455 3212 c-73 -45 -153 -176 -162 -268 -10 -91 0 -96 63 -33 60 59
104 136 104 183 1 17 9 55 19 84 10 28 15 52 12 52 -3 0 -20 -8 -36 -18z"/>
<path d="M5685 3201 c8 -17 19 -59 24 -94 5 -35 18 -82 29 -104 22 -42 108
-143 122 -143 19 0 22 70 5 127 -24 85 -63 149 -118 199 -59 53 -85 59 -62 15z"/>
<path d="M2202 2975 c-53 -60 -120 -190 -134 -259 -9 -48 -8 -59 6 -81 13 -19
21 -24 30 -16 26 22 107 208 117 270 5 35 16 79 24 97 19 47 4 42 -43 -11z"/>
<path d="M5910 3018 c0 -4 5 -19 11 -35 6 -15 17 -62 24 -104 13 -72 98 -279
115 -279 19 0 33 36 32 80 -2 83 -78 244 -149 312 -18 18 -33 29 -33 26z"/>
<path d="M1990 2733 c-43 -53 -96 -162 -110 -227 -16 -79 -10 -176 13 -190 23
-14 47 15 83 104 22 54 28 87 33 195 4 72 10 136 14 143 16 25 -3 11 -33 -25z"/>
<path d="M6148 2623 c3 -135 23 -227 62 -290 21 -35 54 -44 64 -17 11 28 6
158 -8 210 -15 56 -63 153 -99 197 l-22 28 3 -128z"/>
<path d="M1788 2423 c-51 -77 -55 -94 -62 -240 -7 -154 2 -200 42 -222 35 -19
47 -13 70 34 37 77 39 139 6 241 -19 60 -28 111 -29 156 0 38 -1 68 -1 68 -1
0 -13 -17 -26 -37z"/>
<path d="M6338 2369 c-3 -35 -17 -98 -32 -140 -30 -87 -34 -163 -10 -232 20
-59 37 -74 69 -59 49 22 57 60 52 226 -4 155 -12 186 -60 250 -13 17 -14 13
-19 -45z"/>
<path d="M2115 2285 c-27 -13 -58 -24 -67 -24 -50 -2 -138 -127 -138 -195 0
-41 14 -48 64 -31 67 23 149 119 196 230 22 52 18 54 -55 20z"/>
<path d="M5960 2305 c0 -18 66 -145 97 -187 40 -55 113 -108 149 -108 42 0 42
54 -1 140 -27 54 -61 87 -101 99 -16 5 -55 21 -86 35 -32 14 -58 23 -58 21z"/>
<path d="M1655 2045 c-24 -85 -28 -317 -7 -377 19 -55 64 -98 100 -98 37 0 42
14 42 138 0 98 -11 137 -53 194 -29 39 -47 91 -56 162 l-7 51 -19 -70z"/>
<path d="M6460 2048 c0 -49 -24 -114 -66 -174 -44 -65 -54 -101 -54 -190 0
-135 13 -154 80 -119 77 40 113 249 75 429 -17 81 -35 109 -35 54z"/>
<path d="M2034 2044 c-102 -68 -159 -151 -170 -247 -7 -57 6 -97 31 -97 48 0
127 127 169 274 14 49 26 90 26 92 0 10 -20 2 -56 -22z"/>
<path d="M6060 2037 c0 -12 9 -53 20 -91 42 -147 115 -261 162 -254 22 3 23 7
22 83 0 90 -12 121 -71 186 -34 37 -113 99 -127 99 -3 0 -6 -10 -6 -23z"/>
<path d="M2016 1785 c-13 -14 -29 -38 -36 -54 -7 -19 -21 -31 -38 -34 -49 -10
-83 -106 -81 -230 1 -99 7 -105 57 -61 51 44 84 105 105 199 16 68 37 181 37
197 0 16 -21 8 -44 -17z"/>
<path d="M6084 1738 c11 -97 36 -208 58 -261 18 -42 88 -117 109 -117 15 0 21
129 9 199 -12 74 -39 121 -70 121 -10 0 -23 13 -31 31 -15 38 -57 89 -71 89
-7 0 -8 -21 -4 -62z"/>
<path d="M1581 1707 c-17 -43 -13 -143 8 -232 43 -176 106 -265 190 -265 l33
0 -7 77 c-11 115 -29 174 -60 198 -68 50 -102 93 -119 151 -10 32 -21 68 -26
79 -7 19 -9 18 -19 -8z"/>
<path d="M6512 1636 c-25 -83 -58 -130 -106 -150 -24 -10 -38 -26 -53 -62 -23
-53 -48 -207 -37 -225 9 -16 69 -4 103 20 38 27 95 138 120 235 24 90 28 213
9 239 -11 15 -16 7 -36 -57z"/>
<path d="M3755 910 c-49 -20 -85 -83 -85 -148 0 -53 23 -82 65 -82 48 0 84 35
100 96 16 63 10 99 -23 124 -27 22 -28 22 -57 10z m39 -26 c49 -48 -19 -225
-70 -183 -29 24 -14 140 23 181 20 22 27 22 47 2z"/>
<path d="M3529 889 c-11 -11 -18 -23 -16 -26 3 -2 15 5 27 17 31 31 64 23 68
-15 2 -25 -7 -42 -50 -90 -92 -103 -91 -95 -9 -95 46 0 70 4 66 10 -3 6 -24
10 -47 10 l-41 0 40 43 c73 79 94 125 68 151 -23 23 -81 20 -106 -5z"/>
<path d="M3931 901 c-10 -7 -10 -10 -1 -13 10 -3 9 -25 -4 -102 -9 -54 -15
-101 -12 -103 3 -3 11 -3 19 0 11 4 47 169 47 217 0 12 -30 13 -49 1z"/>
<path d="M4092 888 c-33 -36 -38 -72 -12 -98 15 -15 30 -20 46 -17 27 5 24 -2
-30 -60 -28 -31 -29 -33 -9 -33 14 0 41 23 77 67 52 62 61 83 56 123 -5 43
-92 55 -128 18z m86 -25 c4 -40 -13 -73 -37 -73 -28 0 -44 26 -36 57 9 39 25
54 49 51 16 -2 22 -11 24 -35z"/>
<path d="M3296 784 c-15 -15 -21 -34 -11 -34 3 0 14 5 24 12 14 9 27 8 58 -4
44 -18 73 -9 73 22 0 25 -9 25 -25 3 -12 -17 -15 -17 -49 0 -45 21 -51 21 -70
1z"/>
<path d="M4242 788 c-14 -14 -16 -38 -3 -38 5 0 11 6 14 13 3 9 15 8 51 -5 45
-17 47 -17 67 3 11 11 17 24 14 29 -9 15 -25 12 -25 -5 0 -8 -4 -15 -9 -15 -5
0 -25 7 -44 15 -44 18 -50 18 -65 3z"/>
<path d="M2633 465 c-39 -17 -63 -52 -70 -104 -5 -33 -1 -44 20 -65 62 -62
177 -2 177 92 0 46 -14 68 -51 81 -39 13 -37 13 -76 -4z m77 -15 c51 -51 -15
-186 -80 -165 -75 24 -31 177 53 184 4 1 16 -8 27 -19z"/>
<path d="M3457 383 c-32 -52 -56 -98 -53 -101 3 -2 11 7 17 22 11 23 18 26 60
26 42 0 48 -3 53 -25 4 -14 13 -25 21 -25 8 0 15 2 15 4 0 9 -49 189 -52 192
-2 2 -30 -40 -61 -93z m53 28 c0 -5 3 -23 6 -40 6 -30 6 -31 -30 -31 -20 0
-36 2 -36 4 0 3 9 21 21 40 20 34 39 47 39 27z"/>
<path d="M3859 417 c-20 -34 -47 -80 -59 -102 l-22 -40 22 28 c18 22 30 27 66
27 38 0 44 -3 50 -25 5 -22 34 -37 34 -17 0 9 -49 184 -52 188 -2 1 -19 -25
-39 -59z m31 -6 c0 -5 3 -23 6 -40 6 -30 6 -31 -30 -31 -20 0 -36 2 -36 4 0 3
9 21 21 40 20 34 39 47 39 27z"/>
<path d="M4816 384 c-31 -54 -54 -99 -52 -102 3 -2 11 7 17 22 11 23 18 26 60
26 42 0 48 -3 53 -25 4 -14 13 -25 22 -25 10 0 14 6 10 18 -2 9 -14 53 -26 97
-12 44 -23 81 -24 83 -2 1 -28 -41 -60 -94z m59 -11 c6 -32 6 -33 -29 -33 -20
0 -36 2 -36 6 0 3 10 23 22 44 24 41 31 38 43 -17z"/>
<path d="M2791 389 c-7 -44 -15 -87 -18 -95 -3 -8 1 -14 10 -14 17 0 27 21 27
55 0 41 18 37 31 -6 12 -38 32 -59 45 -46 3 3 -2 22 -11 42 -8 21 -14 39 -13
40 43 24 58 39 58 58 0 34 -19 47 -70 47 l-47 0 -12 -81z m98 53 c14 -26 -13
-62 -45 -62 -26 0 -27 2 -18 49 5 24 12 31 30 31 13 0 28 -8 33 -18z"/>
<path d="M2939 375 c-12 -77 -13 -95 -2 -95 13 0 16 9 33 104 13 77 13 86 -3
86 -9 0 -18 -31 -28 -95z"/>
<path d="M3030 440 c-76 -81 -22 -192 79 -161 31 9 40 17 45 42 9 48 9 49 -36
48 -30 -2 -35 -3 -15 -6 28 -4 31 -12 21 -50 -7 -25 -31 -33 -62 -22 -47 18
-47 96 0 146 23 25 57 30 89 13 11 -6 19 -7 19 -1 0 13 -26 21 -72 21 -31 0
-46 -6 -68 -30z"/>
<path d="M3201 393 c-7 -43 -15 -86 -17 -95 -4 -12 0 -18 10 -18 9 0 16 1 16
3 0 1 7 40 15 87 18 103 18 100 1 100 -9 0 -17 -25 -25 -77z"/>
<path d="M3276 453 c-10 -37 -28 -164 -23 -169 2 -2 10 29 16 71 7 41 14 75
16 75 1 0 22 -34 45 -75 24 -41 46 -72 50 -70 8 5 34 174 27 181 -3 3 -8 -22
-12 -55 -4 -34 -10 -63 -14 -66 -4 -2 -24 25 -45 61 -39 67 -51 76 -60 47z"/>
<path d="M3617 463 c-8 -15 -30 -174 -24 -179 14 -15 25 12 36 91 12 78 15 85
36 85 53 0 57 -66 4 -77 -34 -7 -34 -5 -13 -60 11 -29 23 -43 35 -43 17 0 17
2 -1 42 l-19 42 30 18 c33 20 41 71 13 82 -22 9 -92 7 -97 -1z"/>
<path d="M3766 453 c-8 -29 -26 -135 -26 -156 0 -10 5 -17 12 -15 18 6 48 188
32 188 -7 0 -15 -8 -18 -17z"/>
<path d="M3995 450 c-24 -26 -14 -61 25 -83 33 -20 39 -47 14 -71 -21 -21 -29
-20 -54 6 -11 12 -20 17 -20 11 0 -15 34 -43 52 -43 8 0 27 9 42 21 43 34 31
80 -29 114 -26 15 -11 55 20 55 13 0 25 -6 28 -12 2 -7 8 -10 12 -6 14 13 -7
28 -39 28 -20 0 -40 -8 -51 -20z"/>
<path d="M4206 458 c-7 -19 -26 -142 -26 -161 0 -9 6 -17 13 -17 9 0 17 29 26
90 l13 90 33 0 c36 0 55 -20 55 -59 0 -36 -30 -98 -53 -109 l-22 -11 22 0 c28
-1 70 50 79 93 3 21 1 45 -8 63 -12 25 -19 28 -71 31 -40 2 -58 -1 -61 -10z"/>
<path d="M4381 403 c-6 -38 -14 -80 -17 -95 -4 -21 -2 -28 10 -28 10 0 17 14
22 45 6 42 8 45 38 46 30 2 30 2 4 6 -23 4 -28 10 -28 31 0 37 10 49 45 55 22
3 18 4 -16 6 l-47 1 -11 -67z"/>
<path d="M4585 448 c-9 -41 -25 -141 -25 -155 0 -7 6 -13 13 -13 9 0 18 31 28
95 12 77 13 95 2 95 -7 0 -15 -10 -18 -22z"/>
<path d="M4693 461 l49 -6 -66 -87 c-50 -66 -62 -88 -49 -88 11 1 43 34 78 82
87 118 86 108 8 106 -65 -1 -66 -1 -20 -7z"/>
<path d="M4959 376 c-8 -52 -12 -93 -8 -90 4 2 10 31 14 64 4 33 10 62 15 65
4 3 16 -27 26 -65 10 -39 21 -70 24 -70 8 0 82 131 77 136 -3 3 -17 -17 -33
-43 l-28 -48 -18 60 c-10 33 -18 66 -18 73 0 6 -8 12 -18 12 -15 0 -21 -15
-33 -94z"/>
<path d="M5124 459 c-3 -6 -8 -32 -9 -58 -2 -25 -6 -63 -10 -83 -6 -30 -4 -38
7 -38 11 0 19 21 27 73 7 39 14 82 18 95 4 16 1 22 -10 22 -9 0 -19 -5 -23
-11z"/>
<path d="M5209 398 c-23 -40 -49 -83 -57 -95 -8 -13 -10 -23 -5 -23 5 0 15 11
21 26 11 22 17 25 60 22 40 -3 47 -6 50 -25 3 -22 32 -33 32 -13 0 25 -43 180
-50 180 -4 0 -27 -33 -51 -72z m50 -35 c1 -19 -4 -23 -29 -23 -36 0 -37 11 -8
58 22 36 22 36 29 12 4 -14 7 -35 8 -47z"/>
<path d="M5346 381 c-19 -107 -19 -101 -3 -101 9 0 18 25 26 73 7 39 15 82 18
95 4 15 1 22 -10 22 -10 0 -19 -24 -31 -89z"/>
</g>
</svg>
